<svg xmlns="http://www.w3.org/2000/svg" viewBox="0 0 200 200"><defs><style>.cls-1{fill:#222;}.cls-2{fill:#3f51b5;}.cls-3{font-size:23px;fill:#fff;font-family:Arial-BoldMT, Arial;font-weight:700;}.cls-4{letter-spacing:-0.02em;}.cls-5{letter-spacing:-0.07em;}</style></defs><g id="Layer_2" data-name="Layer 2"><g id="CourelliValues"><g id="Conservative"><g id="Structure"><rect id="rect5163" class="cls-1" width="200" height="200" rx="15"/><rect id="rect5165" class="cls-2" x="10" y="10" width="180" height="180" rx="10"/><path id="rect5205-3-6" class="cls-1" d="M5.5,140v31.5a21,21,0,0,0,21,21h147a21,21,0,0,0,21-21V140Z"/></g><path id="path1910" d="M61.86,124.58c-3.7-.47-3.71-.48-3.44-4.1A96.08,96.08,0,0,1,60,108.62c.44-1.39,1.84-2.55,4.9-4.06a6.94,6.94,0,0,0,2.44-1.62c0-.24-.58-.45-1.42-.51l-1.43-.11V97.63l4-.1c3.79-.09,4-.14,4.38-.84.19-.41.82-1.65,1.39-2.75s1.65-3.3,2.4-4.87,1.9-3.75,2.54-4.86S80.49,82,80.62,81.7s.63-1.11,1.1-1.85c1-1.49,1-1.48,3.44-5.53,3.08-5,5-7.36,12.9-16.1A125.77,125.77,0,0,1,110.43,46c1.29-1.06,4.2-3.67,6.47-5.79a33,33,0,0,1,4.29-3.69,9.67,9.67,0,0,1-1,2.63,9.85,9.85,0,0,0-1.1,3.15c.07.43.79-.69,2-3.21,1.83-3.65,2.07-4,4.26-5.61a48.63,48.63,0,0,1,5.43-3.37,95.3,95.3,0,0,0,8.54-5c3-1.95,3.07-1.44.63,2.88-.78,1.39-1.8,3.35-2.26,4.36s-2,4-3.46,6.71c-3.19,5.92-4,7.45-5.84,10.9-1.46,2.75-2.42,4-3.48,4.58-.33.18-2.67,1-5.2,1.93s-5.23,1.93-6,2.32c-2.49,1.28-2.16,2,.37.76,2.25-1.07,9.87-3.55,10.12-3.3s-2.73,4.35-11,14.17l-4.91,5.87C105.58,79.64,104,81,102.75,81a5.32,5.32,0,0,0-1.71.48L100,82l1.59,0c.88,0,1.6.16,1.6.31s-1.77,1.76-5.49,4.66c-3.2,2.51-8.77,5.3-14.9,7.48A36.5,36.5,0,0,0,79,96.19l-2.08,1.1,2.34.17,2.34.17v4.69l-1.25.11c-1.28.1-1.65.68-.84,1.3a12.34,12.34,0,0,0,2.09.93,9.18,9.18,0,0,1,3.19,2.15c1.44,1.48,1.54,1.69,2.1,4.9.32,1.85.68,5.28.8,7.62l.22,4.27-.87.33C84.54,124.87,67.55,125.31,61.86,124.58Z"/><text class="cls-3" transform="translate(11.18 176.81)">CONSE<tspan class="cls-4" x="81.79" y="0">R</tspan><tspan class="cls-5" x="97.99" y="0">VA</tspan><tspan x="126.52" y="0">TIVE</tspan></text></g></g></g></svg>