<svg xmlns="http://www.w3.org/2000/svg" xmlns:xlink="http://www.w3.org/1999/xlink" viewBox="0 0 200 200"><defs><style>.cls-1{fill:none;}.cls-2{fill:#222;}.cls-3{fill:#ccc;}.cls-4{clip-path:url(#clip-path);}.cls-5{clip-path:url(#clip-path-2);}.cls-6{clip-path:url(#clip-path-3);}.cls-7{clip-path:url(#clip-path-4);}.cls-8{font-size:21px;fill:#fff;font-family:Arial-BoldMT, Arial;font-weight:700;}</style><clipPath id="clip-path"><rect class="cls-1" x="47.06" y="61.8" width="52.94" height="28.19"/></clipPath><clipPath id="clip-path-2"><rect class="cls-1" x="100" y="61.8" width="52.94" height="28.19"/></clipPath><clipPath id="clip-path-3"><rect class="cls-1" x="85.9" y="75.89" width="28.19" height="52.94"/></clipPath><clipPath id="clip-path-4"><rect class="cls-1" x="85.9" y="22.96" width="28.19" height="52.94"/></clipPath></defs><g id="Layer_2" data-name="Layer 2"><g id="CourelliValues"><g id="Decentralized"><g id="Structure"><rect id="rect5163" class="cls-2" width="200" height="200" rx="15"/><rect id="rect5165" class="cls-3" x="10" y="10" width="180" height="180" rx="10"/><path id="rect5205-3-6" class="cls-2" d="M5.5,140v31.5a21,21,0,0,0,21,21h147a21,21,0,0,0,21-21V140Z"/></g><g id="_Mirror_Repeat_" data-name="&lt;Mirror Repeat&gt;"><g class="cls-4"><polygon class="cls-2" points="100 71.25 100 80.54 71.48 80.54 71.48 89.99 47.06 75.89 71.48 61.8 71.48 71.25 100 71.25"/></g></g><g id="_Mirror_Repeat_2" data-name="&lt;Mirror Repeat&gt;"><g class="cls-5"><polygon class="cls-2" points="100 71.25 100 80.54 128.52 80.54 128.52 89.99 152.94 75.89 128.52 61.8 128.52 71.25 100 71.25"/></g></g><g id="_Mirror_Repeat_3" data-name="&lt;Mirror Repeat&gt;"><g class="cls-6"><polygon class="cls-2" points="95.35 75.89 104.65 75.89 104.65 104.41 114.1 104.41 100 128.83 85.9 104.41 95.35 104.41 95.35 75.89"/></g></g><g id="_Mirror_Repeat_4" data-name="&lt;Mirror Repeat&gt;"><g class="cls-7"><polygon class="cls-2" points="95.35 75.89 104.65 75.89 104.65 47.37 114.1 47.37 100 22.96 85.9 47.37 95.35 47.37 95.35 75.89"/></g></g><text class="cls-8" transform="translate(15.56 176.81)">DECENTRALIZED</text></g></g></g></svg>