<svg xmlns="http://www.w3.org/2000/svg" viewBox="0 0 200 200"><defs><style>.cls-1{fill:#222;}.cls-2{fill:#399;}.cls-3{font-size:26px;fill:#fff;font-family:Arial-BoldMT, Arial;font-weight:700;}.cls-4{letter-spacing:-0.07em;}</style></defs><g id="Layer_2" data-name="Layer 2"><g id="CourelliValues"><g id="Democratic"><g id="Structure"><rect id="rect5163" class="cls-1" width="200" height="200" rx="15"/><rect id="rect5165" class="cls-2" x="10" y="10" width="180" height="180" rx="10"/><path id="rect5205-3-6" class="cls-1" d="M5.5,140v31.5a21,21,0,0,0,21,21h147a21,21,0,0,0,21-21V140Z"/></g><path id="path8" d="M131.54,110.23H61V39.73h70.51v2l9.75-8.55A11.72,11.72,0,0,0,131.54,28H61A11.75,11.75,0,0,0,49.28,39.73v70.5A11.75,11.75,0,0,0,61,122h70.51a11.75,11.75,0,0,0,11.75-11.75V67L131.54,77.28Z"/><polygon id="polygon5" points="84.36 90.24 94.67 101.98 95.04 102.4 150.72 53.47 140.04 41.31 96.33 79.71 81.09 62.37 69.11 72.9 84.36 90.24"/><text class="cls-3" transform="translate(12.86 179.81)">DEMOCR<tspan class="cls-4" x="115.55" y="0">A</tspan><tspan x="132.4" y="0">TIC</tspan></text></g></g></g></svg>