<svg xmlns="http://www.w3.org/2000/svg" viewBox="0 0 200 200"><defs><style>.cls-1{fill:#222;}.cls-2{fill:#399;}.cls-3{font-size:29px;fill:#fff;font-family:Arial-BoldMT, Arial;font-weight:700;}.cls-4{letter-spacing:-0.07em;}</style></defs><g id="Layer_2" data-name="Layer 2"><g id="CourelliValues"><g id="Diplomatic"><g id="Structure"><rect id="rect5163" class="cls-1" width="200" height="200" rx="15"/><rect id="rect5165" class="cls-2" x="10" y="10" width="180" height="180" rx="10"/><path id="rect5205-3-6" class="cls-1" d="M5.5,140v31.5a21,21,0,0,0,21,21h147a21,21,0,0,0,21-21V140Z"/></g><path class="cls-1" d="M140.27,30.8l-9.58,9.58,1.67,1.67h0L154.1,63.79a7.47,7.47,0,0,0,10.56,0l4.3-4.29Z"/><path class="cls-1" d="M135.2,86.18l-1.75-1.75-1.75-1.75-4.3-4.3a3.64,3.64,0,0,0-2.59-1.07,3.67,3.67,0,0,0-2.6,6.26l4.3,4.3,1.75,1.75L130,91.37l2.69,2.68a3.66,3.66,0,0,0,5.19,0,3.66,3.66,0,0,0,0-5.18Z"/><path class="cls-1" d="M126.52,94.86l-1.75-1.75L123,91.36l-4.31-4.3a3.67,3.67,0,0,0-5.18,0,3.68,3.68,0,0,0,0,5.19l4.3,4.3,1.74,1.75,1.75,1.75,2.69,2.68a3.67,3.67,0,1,0,5.19-5.18Z"/><path class="cls-1" d="M120.53,106.23l-2.69-2.69-1.75-1.75L114.34,100l-4.3-4.3a3.67,3.67,0,0,0-5.19,5.19h0l4.3,4.3L110.9,107l1.75,1.74,2.69,2.7a3.64,3.64,0,0,0,2.59,1.07,3.65,3.65,0,0,0,3.67-3.67,3.64,3.64,0,0,0-1.07-2.59Z"/><path class="cls-1" d="M109.15,112.22l-1.74-1.75-1.75-1.74-4.3-4.31a3.67,3.67,0,0,0-5.19,5.19l4.3,4.3,1.75,1.75,1.75,1.75,2.69,2.69a3.68,3.68,0,0,0,5.19,0,3.69,3.69,0,0,0,0-5.19Z"/><path class="cls-1" d="M123.37,49.71a11.55,11.55,0,0,1-8.24-3.42,6.72,6.72,0,0,0-9.5,0L104,48l18.17,18.17a2.49,2.49,0,0,1,0,3.51L116.71,75a11.69,11.69,0,0,1-16.46-.06L92.6,67.28a5.66,5.66,0,0,0-4-1.67,5.72,5.72,0,0,0-3.33,1.09L67.51,84.42h0L64,87.92a3.67,3.67,0,0,0,2.6,6.26,3.64,3.64,0,0,0,2.59-1.07,2.46,2.46,0,0,1,3.49,0,2.45,2.45,0,0,1,0,3.49,3.68,3.68,0,0,0,2.6,6.27,3.61,3.61,0,0,0,2.59-1.08,2.47,2.47,0,0,1,3.5,3.5,3.67,3.67,0,0,0,5.18,5.19,2.47,2.47,0,0,1,3.5,3.49,3.68,3.68,0,0,0,0,5.19,3.64,3.64,0,0,0,2.59,1.07,3.68,3.68,0,0,0,2.6-1.07L97,117.42l-4.3-4.31a8.61,8.61,0,0,1,0-12.17,8.51,8.51,0,0,1,6.08-2.52h.08v-.08a8.6,8.6,0,0,1,8.6-8.61h.08a8.62,8.62,0,0,1,8.6-8.69h.08a8.61,8.61,0,0,1,14.69-6.17l4.3,4.3,13.65-13.65L130.56,47.23A11.57,11.57,0,0,1,123.37,49.71Z"/><path class="cls-1" d="M81,63.8A12.54,12.54,0,0,1,82,63a10.72,10.72,0,0,1,5.76-2.26c.27,0,.55,0,.82,0A10.91,10.91,0,0,1,91,61a10.6,10.6,0,0,1,5.1,2.83l7.66,7.66a6.74,6.74,0,0,0,9.49,0l3.65-3.61-16.41-16.4-1.75-1.75L97,48l-2.62-2.61a6.7,6.7,0,0,0-9.49,0,11.68,11.68,0,0,1-15.43.94L51.15,64.58l14.6,14.6Z"/><path class="cls-1" d="M67.64,41.11l1.67-1.68-9.57-9.58L31,58.54l4.3,4.3a7.46,7.46,0,0,0,10.56,0L67.63,41.11Z"/><text class="cls-3" transform="translate(10.86 179.81)">DIPLOM<tspan class="cls-4" x="112.77" y="0">A</tspan><tspan x="131.56" y="0">TIC</tspan></text></g></g></g></svg>