<svg xmlns="http://www.w3.org/2000/svg" viewBox="0 0 200 200"><defs><style>.cls-1{fill:#222;}.cls-2{fill:#093;}.cls-3{font-size:27px;fill:#fff;font-family:Arial-BoldMT, Arial;font-weight:700;}.cls-4{letter-spacing:-0.02em;}</style></defs><g id="Layer_2" data-name="Layer 2"><g id="CourelliValues"><g id="Ecological"><g id="Structure"><rect id="rect5163" class="cls-1" width="200" height="200" rx="15"/><rect id="rect5165" class="cls-2" x="10" y="10" width="180" height="180" rx="10"/><path id="rect5205-3-6" class="cls-1" d="M5.5,140v31.5a21,21,0,0,0,21,21h147a21,21,0,0,0,21-21V140Z"/></g><path id="path134" class="cls-1" d="M73.18,130.21c-8.06-.57-12.28-3.48-14.45-6.71.42-7.85,1.62-17.64,5-26.52A37.66,37.66,0,0,1,71.79,83.9a74.85,74.85,0,0,1,10.54-9.7,61.74,61.74,0,0,1,14.61-8c1.9-.73,5.32-2.11,9.45-3.65a75.74,75.74,0,0,0,13.36-6,150.72,150.72,0,0,0,16-10.16A159.13,159.13,0,0,1,119,54.31a80.87,80.87,0,0,1-13.5,4.21,100.42,100.42,0,0,0-9.83,3C92,63,69.8,70.13,58.47,93.92a85.41,85.41,0,0,0-5.21,18.25,13,13,0,0,1-6.62-9.42c-1.51-9-.67-36.08,23.86-51.12s51.91-12,65-16.43a33.38,33.38,0,0,0,18.31-14.44S142.9,122.8,73.18,130.21Z"/><text class="cls-3" transform="translate(10.25 179.81)">ECOLOGICA<tspan class="cls-4" x="163.5" y="0">L</tspan></text></g></g></g></svg>