<svg xmlns="http://www.w3.org/2000/svg" viewBox="0 0 200 200"><defs><style>.cls-1,.cls-3{fill:#222;}.cls-2{fill:#933;}.cls-3{fill-rule:evenodd;}.cls-4{font-size:27px;fill:#fff;font-family:Arial-BoldMT, Arial;font-weight:700;}</style></defs><g id="Layer_2" data-name="Layer 2"><g id="CourelliValues"><g id="Imperialist"><g id="Structure"><rect id="rect5163" class="cls-1" width="200" height="200" rx="15"/><rect id="rect5165" class="cls-2" x="10" y="10" width="180" height="180" rx="10"/><path id="rect5205-3-6" class="cls-1" d="M5.5,140v31.5a21,21,0,0,0,21,21h147a21,21,0,0,0,21-21V140Z"/></g><path id="path2384" class="cls-3" d="M52.56,37.24l-2.37,2.49c-1.66,1.75-3.56,1.88-6,1-1.18-.43-2.52-1.67-3.61-.62s.44,1.81,1.5,2.24c4.32,1.76,6.76,4.3,5.73,9.59s-4.61,4.69-7.72,5.23c-2.34.4-4.57.39-5.73,1.49a2.48,2.48,0,0,0,1.49,4.48c7.57-.65,13.9,5.14,10.46,12.71L42.6,84.06l4,.25-13.7,31.38L67,120.17,77.46,82.82c.72-2.55,4.08-4.11,6.73-4.23l16.18-.75c3.36-.16,7.15-3.17,7.72-6.48l1-5.73a6.25,6.25,0,0,1,5.48-4.73l24.9-.25.75-1.24,24.16-.25c1.15,0,1.27-1.93,1.74-3l1-2.24V40l-2.24-2.74h-56L106.35,40H92.65l-1.74-2.74Zm38.66,25h7.91c9,0,9.13,14.45,0,14.45H91.22C82.89,76.72,81.66,62.27,91.22,62.27Z"/><text class="cls-4" transform="translate(14.5 179.81)">IMPERIALIST</text></g></g></g></svg>