<svg xmlns="http://www.w3.org/2000/svg" viewBox="0 0 200 200"><defs><style>.cls-1{fill:#222;}.cls-2{fill:#5b92e5;}.cls-3{font-size:19px;fill:#fff;font-family:Arial-BoldMT, Arial;font-weight:700;}.cls-4{letter-spacing:-0.07em;}</style></defs><g id="Layer_2" data-name="Layer 2"><g id="CourelliValues"><g id="Internationalist"><g id="Structure"><rect id="rect5163" class="cls-1" width="200" height="200" rx="15"/><rect id="rect5165" class="cls-2" x="10" y="10" width="180" height="180" rx="10"/><path id="rect5205-3-6" class="cls-1" d="M5.5,140v31.5a21,21,0,0,0,21,21h147a21,21,0,0,0,21-21V140Z"/></g><circle class="cls-1" cx="160" cy="37.04" r="12.26"/><path class="cls-1" d="M145,53.18H175l7.53,7.53V84.42l-9.14,9.51-.25,30.59H146.88L146.66,95l0-1-9.15-9.51V60.71Z"/><circle class="cls-1" cx="100" cy="37.04" r="12.26"/><path class="cls-1" d="M85,53.18h30l7.53,7.53V84.42l-9.14,9.51-.25,30.59H86.88L86.66,95l0-1-9.15-9.51V60.71Z"/><circle class="cls-1" cx="40" cy="37.04" r="12.26"/><path class="cls-1" d="M25,53.18H55l7.53,7.53V84.42l-9.14,9.51-.25,30.59H26.88L26.66,95l0-1-9.15-9.51V60.71Z"/><text class="cls-3" transform="translate(8.35 175.81)">INTERN<tspan class="cls-4" x="70.72" y="0">A</tspan><tspan x="83.03" y="0">TIONALIST</tspan></text></g></g></g></svg>