<svg xmlns="http://www.w3.org/2000/svg" viewBox="0 0 200 200"><defs><style>.cls-1,.cls-3{fill:#222;}.cls-2{fill:#c09;}.cls-3{fill-rule:evenodd;}.cls-4{font-size:24px;fill:#fff;font-family:Arial-BoldMT, Arial;font-weight:700;}</style></defs><g id="Layer_2" data-name="Layer 2"><g id="CourelliValues"><g id="Progressive"><g id="Structure"><rect id="rect5163" class="cls-1" width="200" height="200" rx="15"/><rect id="rect5165" class="cls-2" x="10" y="10" width="180" height="180" rx="10"/><path id="rect5205-3-6" class="cls-1" d="M5.5,140v31.5a21,21,0,0,0,21,21h147a21,21,0,0,0,21-21V140Z"/></g><g id="Layer_1-2" data-name="Layer_1"><path class="cls-3" d="M99.76,113.65,80.71,119c-28.5,8.25-38.25-11.32-29.12-23.25,4.8,5.21,8.57,8.77,12.77,10.39C74,109.85,78.72,103.58,99.76,113.65Z"/><path class="cls-3" d="M138.15,114.16c-9.29,10.91-20.48,10.11-33.32-1.93,11.6.11,31.5-.66,35.14-15.47,2.17-8.76-3.59-4.69,10.42-14.76,6.11-4.4,11.48,2.27,13.2,7.15C168.75,104,150.47,97.11,138.15,114.16Z"/><path class="cls-3" d="M143.1,83.07c-2-8.34-4.6-12.84-6.64-18.72-1.72-5-2.21-11.37-2.12-20.79C151.91,46.56,154.68,72.74,143.1,83.07Z"/><path class="cls-3" d="M130.08,103.1c-11.9,8.72-33.32,4.44-42.3.56,14.46-15.79,39.87,5.9,49.11-29.5C140.87,80.69,137.28,97.81,130.08,103.1Z"/><path class="cls-3" d="M120.84,89c-9.11,4.58-20.42,7.09-37.43,1.88,7.82-10.48,26.33-6.41,36-20.08,4.09-5.78,5.72-12.77,6.36-15.49C137.12,66.74,130.72,84,120.84,89Z"/><path class="cls-3" d="M110.27,72.29c-5.54,4.07-12.63,4.89-20.39,9.82,3.77-6,10.2-9.9,16.86-14.45C116.45,61,116.25,57.23,120,51.42,120.88,61.81,114.63,69.08,110.27,72.29Z"/><path class="cls-3" d="M111.16,56c.17,8.61-11.32,12-15.81,15.29C93.5,67.9,93.67,60.94,97,57.91S103.29,56.93,111.16,56Z"/><path class="cls-3" d="M101.36,52c-5.33,1.52-10.09,6.38-12,12.9C84.76,55.41,92.45,48.23,101.36,52Z"/><path class="cls-3" d="M115,54.59c-3.47-3.32-6-9.06-17.87-7.75C103.16,34.09,120.05,35.29,115,54.59Z"/><path class="cls-3" d="M130.35,51.16c-9.51-13.6-23-17.35-42.9-15.77C106.93,20.63,129.78,19.81,130.35,51.16Z"/><path class="cls-3" d="M97.55,41.56c-13.88,6.54-13.46,13.57-18,20.68-3.19-4.09-9-14.14-3.42-20.82C79.79,37.06,94.29,36.57,97.55,41.56Z"/><path class="cls-3" d="M95.1,27.79C71.15,32.54,65.8,51,60.72,58.58,53.82,30.77,79.74,18.42,95.1,27.79Z"/><path class="cls-3" d="M91.4,70.45,82.49,86.82c-23-1.54-20.81-19.44-14-32.94C72.86,58.58,75.69,69.7,91.4,70.45Z"/><path class="cls-3" d="M91.81,96c-6.84,1.93-6.62,2.1-9.35,5.57C65.77,104.22,59.92,96,54.33,92.41c-35.46-.77-13.95-36.27,8.57-31-7.45,4.42-7.19,12.16-2.49,18.48,5,6.66,15.22,11.14,22.31,13.41Z"/></g><text class="cls-4" transform="translate(12.64 178.81)">PROGRESSIVE</text></g></g></g></svg>