<svg xmlns="http://www.w3.org/2000/svg" viewBox="0 0 200 200"><defs><style>.cls-1,.cls-3{fill:#222;}.cls-2{fill:#639;}.cls-3{fill-rule:evenodd;}.cls-4{font-size:30px;fill:#fff;font-family:Arial-BoldMT, Arial;font-weight:700;}</style></defs><g id="Layer_2" data-name="Layer 2"><g id="CourelliValues"><g id="Religious"><g id="Structure"><rect id="rect5163" class="cls-1" width="200" height="200" rx="15"/><rect id="rect5165" class="cls-2" x="10" y="10" width="180" height="180" rx="10"/><path id="rect5205-3-6" class="cls-1" d="M5.5,140v31.5a21,21,0,0,0,21,21h147a21,21,0,0,0,21-21V140Z"/></g><path id="path4" class="cls-3" d="M119.25,29.43a7.51,7.51,0,0,1,3.38,5l3.89,19.52a7.37,7.37,0,0,1-.32,4.15,7.61,7.61,0,0,1-2.3,3.31A8.36,8.36,0,0,1,120,63.17l-15.75,2.49a11.05,11.05,0,0,1-2.3,0L97.43,86.32l21.37,27.3a7.54,7.54,0,0,1,2.42,3.89,7.74,7.74,0,0,1-3.12,8.36,7.76,7.76,0,0,1-4.47,1.4H83.78a7.84,7.84,0,0,1-7.84-7.85,7.48,7.48,0,0,1,2.29-5.48,7.69,7.69,0,0,1,5.55-2.24h9.06l-9.69-8q-11.61-7.78-9.51-17.35t3.83-14.41l6.38-20.86,25.76-2.11L107.25,37.4a7.63,7.63,0,0,1,1.22-5.8,7.22,7.22,0,0,1,5-3.32A7.06,7.06,0,0,1,119.25,29.43ZM99.6,44a12.33,12.33,0,0,1-9.12,3.83,13,13,0,0,1-13-13A12.74,12.74,0,0,1,90.48,22a12.55,12.55,0,0,1,9.12,3.69,12.69,12.69,0,0,1,3.83,9.19A12.52,12.52,0,0,1,99.6,44Z"/><text class="cls-4" transform="translate(17.49 179.81)">RELIGIOUS</text></g></g></g></svg>