<svg xmlns="http://www.w3.org/2000/svg" viewBox="0 0 200 200"><defs><style>.cls-1{fill:#222;}.cls-2{fill:#c90;}.cls-3{font-size:30px;fill:#fff;font-family:Arial-BoldMT, Arial;font-weight:700;}</style></defs><g id="Layer_2" data-name="Layer 2"><g id="CourelliValues"><g id="Secular"><g id="Structure"><rect id="rect5163" class="cls-1" width="200" height="200" rx="15"/><rect id="rect5165" class="cls-2" x="10" y="10" width="180" height="180" rx="10"/><path id="rect5205-3-6" class="cls-1" d="M5.5,140v31.5a21,21,0,0,0,21,21h147a21,21,0,0,0,21-21V140Z"/></g><path class="cls-1" d="M73.05,130.24a13,13,0,0,1-7.24-2c-13.85-9-3.72-41,12.85-66.49,15.52-23.9,34.68-40.3,47.68-40.79a13.19,13.19,0,0,1,7.84,2c4.21,2.74,8.59,9.26,5.54,24.8a4,4,0,1,1-7.85-1.55c1.66-8.45.89-14.63-2.05-16.54a5.27,5.27,0,0,0-3.17-.73c-8.74.34-25.73,13.2-41.28,37.16-18.48,28.45-21.31,51.45-15.2,55.42,3,1.93,9,.05,16.22-5.07A4,4,0,0,1,91,122.94C83.34,128.43,77.45,130.24,73.05,130.24Z"/><path class="cls-1" d="M144.86,95.47a4,4,0,0,1-1.45-7.73c6.9-2.68,11.11-6.16,11.27-9.31.38-7.27-19.88-18.51-53.75-20.28-3.06-.16-6-.24-8.73-.23C64.61,58,45.69,65.64,45.32,72.7c-.17,3.14,3.64,7,10.19,10.4a4,4,0,1,1-3.66,7.11C39.41,83.8,37.08,76.92,37.33,72.28,38.13,57,65.45,50,92.17,49.92c2.88,0,6,.07,9.18.24,30.37,1.59,62.19,12.19,61.32,28.69-.24,4.65-3.28,11.27-16.36,16.34A3.93,3.93,0,0,1,144.86,95.47Z"/><path class="cls-1" d="M122.71,132.86c-14.4,0-33.29-22-45.39-45.73C63.5,60,56.77,27.15,71.51,19.63a12.61,12.61,0,0,1,4.73-1.3c5.33-.4,11.49,2.26,18.3,7.91a4,4,0,0,1-5.11,6.16c-4.94-4.1-9.53-6.32-12.59-6.09a4.48,4.48,0,0,0-1.69.45c-6.5,3.31-6.11,26.5,9.29,56.74s33.92,44.17,40.42,40.87c6.85-3.49,5.37-26.32-7.71-53.5a4,4,0,1,1,7.21-3.47c12.71,26.42,18.22,56.92,4.13,64.1A12.63,12.63,0,0,1,122.71,132.86Z"/><path class="cls-1" d="M100,87.39a11,11,0,1,1,11-11A11,11,0,0,1,100,87.39Zm0-14a3,3,0,1,0,3,3A3,3,0,0,0,100,73.4Z"/><text class="cls-3" transform="translate(27.5 179.81)">SECULAR</text></g></g></g></svg>