<svg xmlns="http://www.w3.org/2000/svg" viewBox="0 0 200 200"><defs><style>.cls-1{fill:#222;}.cls-2{fill:#999;}.cls-3{font-size:21px;fill:#fff;font-family:Arial-BoldMT, Arial;font-weight:700;}.cls-4{letter-spacing:-0.07em;}.cls-5{letter-spacing:0em;}</style></defs><g id="Layer_2" data-name="Layer 2"><g id="CourelliValues"><g id="Authoritarian"><g id="Structure"><rect id="rect5163" class="cls-1" width="200" height="200" rx="15"/><rect id="rect5165" class="cls-2" x="10" y="10" width="180" height="180" rx="10"/><path id="rect5205-3-6" class="cls-1" d="M5.5,140v31.5a21,21,0,0,0,21,21h147a21,21,0,0,0,21-21V140Z"/></g><path d="M100,37C62.38,37,40.05,78,40.05,78s22.33,40.91,60,40.91S160,78,160,78,137.62,37,100,37Zm0,65.32A24.41,24.41,0,1,1,124.41,78,24.44,24.44,0,0,1,100,102.36Z"/><circle cx="100" cy="78.53" r="14.41"/><text class="cls-3" transform="translate(13.29 176.81)">AUTHORI<tspan class="cls-4" x="95.66" y="0">T</tspan><tspan class="cls-5" x="106.93" y="0">ARIAN</tspan></text></g></g></g></svg>