<svg xmlns="http://www.w3.org/2000/svg" viewBox="0 0 200 200"><defs><style>.cls-1{fill:#222;}.cls-2{fill:#360;}.cls-3{font-size:30px;fill:#fff;font-family:Arial-BoldMT, Arial;font-weight:700;}.cls-4{letter-spacing:-0.07em;}</style></defs><g id="Layer_2" data-name="Layer 2"><g id="CourelliValues"><g id="Capitalist"><g id="Structure"><rect id="rect5163" class="cls-1" width="200" height="200" rx="15"/><rect id="rect5165" class="cls-2" x="10" y="10" width="180" height="180" rx="10"/><path id="rect5205-3-6" class="cls-1" d="M5.5,140v31.5a21,21,0,0,0,21,21h147a21,21,0,0,0,21-21V140Z"/></g><path d="M103,34V22.4h6.48V35.49c7.88,2.55,9.62,5.45,9.62-1h11V60.64H119.53a17.59,17.59,0,0,0-10.09-14.83V64.46c12.29,3.6,24.69,9.39,24.69,25.61,0,12.64-8.81,20.75-24.69,22.25v12.17H103V112.67a40.12,40.12,0,0,1-5.68-.35v12.17H90.9V111.17c-10.77-2.79-13.79-7.65-13.79.11H65.87V81.5H76.42c0,10.66,6.26,17.27,14.48,19.82V78.83C78.62,75.7,66.22,70.72,66.22,54.27c0-12.87,9.39-20.4,24.68-21V22.4h6.38v11C99.25,33.52,101.33,33.75,103,34ZM90.9,59.25v-15c-5.44,1.51-6.83,4.75-6.83,7.3C84.07,55.42,86.85,57.63,90.9,59.25ZM103,43.84a32.88,32.88,0,0,0-5.68-.47v18L103,62.84Zm0,58.63V81.73l-5.68-1.51v22.25A26.31,26.31,0,0,0,103,102.47Zm6.48-18.54v17.15c5-1.74,6.73-5.21,6.73-8.69C116.17,88.1,113.5,85.79,109.44,83.93Z"/><text class="cls-3" transform="translate(12.78 179.81)">CAPI<tspan class="cls-4" x="71.67" y="0">T</tspan><tspan x="87.77" y="0">ALIST</tspan></text></g></g></g></svg>