<svg xmlns="http://www.w3.org/2000/svg" xmlns:xlink="http://www.w3.org/1999/xlink" viewBox="0 0 200 200"><defs><style>.cls-1{fill:none;}.cls-2{fill:#222;}.cls-3{fill:#a82626;}.cls-4{clip-path:url(#clip-path);}.cls-5{clip-path:url(#clip-path-2);}.cls-6{clip-path:url(#clip-path-3);}.cls-7{clip-path:url(#clip-path-4);}.cls-8{font-size:25px;fill:#fff;font-family:Arial-BoldMT, Arial;font-weight:700;}</style><clipPath id="clip-path"><rect class="cls-1" x="47.06" y="59.59" width="52.94" height="28.19"/></clipPath><clipPath id="clip-path-2"><rect class="cls-1" x="100" y="59.59" width="52.94" height="28.19"/></clipPath><clipPath id="clip-path-3"><rect class="cls-1" x="85.9" y="73.68" width="28.19" height="52.94"/></clipPath><clipPath id="clip-path-4"><rect class="cls-1" x="85.9" y="20.75" width="28.19" height="52.94"/></clipPath></defs><g id="Layer_2" data-name="Layer 2"><g id="CourelliValues"><g id="Centralized"><g id="Structure"><rect id="rect5163" class="cls-2" width="200" height="200" rx="15"/><rect id="rect5165" class="cls-3" x="10" y="10" width="180" height="180" rx="10"/><path id="rect5205-3-6" class="cls-2" d="M5.5,140v31.5a21,21,0,0,0,21,21h147a21,21,0,0,0,21-21V140Z"/></g><g id="_Mirror_Repeat_" data-name="&lt;Mirror Repeat&gt;"><g class="cls-4"><polygon class="cls-2" points="47.06 78.33 47.06 69.03 75.58 69.03 75.58 59.59 100 73.68 75.58 87.78 75.58 78.33 47.06 78.33"/></g></g><g id="_Mirror_Repeat_2" data-name="&lt;Mirror Repeat&gt;"><g class="cls-5"><polygon class="cls-2" points="152.94 78.33 152.94 69.03 124.42 69.03 124.42 59.59 100 73.68 124.42 87.78 124.42 78.33 152.94 78.33"/></g></g><g id="_Mirror_Repeat_3" data-name="&lt;Mirror Repeat&gt;"><g class="cls-6"><polygon class="cls-2" points="104.65 126.62 95.35 126.62 95.35 98.1 85.9 98.1 100 73.68 114.1 98.1 104.65 98.1 104.65 126.62"/></g></g><g id="_Mirror_Repeat_4" data-name="&lt;Mirror Repeat&gt;"><g class="cls-7"><polygon class="cls-2" points="104.65 20.75 95.35 20.75 95.35 49.27 85.9 49.27 100 73.68 114.1 49.27 104.65 49.27 104.65 20.75"/></g></g><text class="cls-8" transform="translate(11.81 178.81)">CENTRALIZED</text></g></g></g></svg>