<svg xmlns="http://www.w3.org/2000/svg" viewBox="0 0 200 200"><defs><style>.cls-1{fill:#222;}.cls-2{fill:#3f51b5;}.cls-3{isolation:isolate;font-size:23px;fill:#fff;font-family:Arial-BoldMT, Arial;font-weight:700;}.cls-4{letter-spacing:-0.02em;}.cls-5{letter-spacing:-0.07em;}</style></defs><g id="Layer_2" data-name="Layer 2"><g id="CourelliValues"><g id="Conservative"><g id="Structure"><path id="rect5163" class="cls-1" d="M15,0H185a15.11,15.11,0,0,1,15,15V185a15.11,15.11,0,0,1-15,15H15A15.11,15.11,0,0,1,0,185V15A15.11,15.11,0,0,1,15,0Z"/><path id="rect5165" class="cls-2" d="M20,10H180a9.9,9.9,0,0,1,10,10V180a9.9,9.9,0,0,1-10,10H20a9.9,9.9,0,0,1-10-10V20A10.16,10.16,0,0,1,20,10Z"/><path id="rect5205-3-6" class="cls-1" d="M5.6,140v31.6a21,21,0,0,0,21,21h147a21,21,0,0,0,21-21V140Z"/></g><path id="path1910" class="cls-1" d="M62,124.6c-3.6-.4-3.8-.4-3.4-4a113.23,113.23,0,0,1,1.6-11.8c.4-1.4,1.8-2.6,4.8-4a5.54,5.54,0,0,0,2.4-1.6c0-.2-.6-.4-1.4-.6l-1.4-.2V97.6h4c3.8,0,4-.2,4.4-.8L74.4,94a35.74,35.74,0,0,1,2.4-4.8,34.63,34.63,0,0,1,2.6-4.8,11.46,11.46,0,0,0,1.4-2.6A13.56,13.56,0,0,1,82,80a48.74,48.74,0,0,0,3.4-5.6c3-5,5-7.4,13-16a113.54,113.54,0,0,1,12.4-12.2c1.2-1,4.2-3.6,6.4-5.8s4.2-3.8,4.2-3.6c0,0-.4,1.2-1,2.6s-1.2,2.8-1,3.2c0,.4.8-.6,2-3.2,1.8-3.6,2-4,4.2-5.6a63.63,63.63,0,0,1,5.4-3.4,65.45,65.45,0,0,0,8.6-5c3-2,3-1.4.6,2.8a44.83,44.83,0,0,0-2.2,4.4c-.4,1-2,4-3.4,6.8-3.2,6-4,7.4-5.8,11-1.4,2.8-2.4,4-3.4,4.6-.4.2-2.6,1-5.2,2s-5.2,2-6,2.4c-2.4,1.2-2.2,2,.4.8,2.2-1,9.8-3.6,10.2-3.2s-2.8,4.4-11,14.2c-1.2,1.4-3.4,4.2-5,5.8-2.8,3.4-4.4,4.6-5.6,4.8a7.42,7.42,0,0,0-1.8.4L100,82h1.6c.8,0,1.6.2,1.6.4s-1.8,1.8-5.4,4.6C94.6,89.6,89,92.2,83,94.4a32.63,32.63,0,0,0-3.8,1.8l-2,1.2,2.4.2,2.4.2v4.8l-1.2.2c-1.2.2-1.6.6-.8,1.4a17.83,17.83,0,0,0,2,1,10.22,10.22,0,0,1,3.2,2.2c1.4,1.4,1.6,1.6,2,5A74.19,74.19,0,0,1,88,120l.2,4.2-.8.4C84.6,125,67.6,125.4,62,124.6Z"/><text class="cls-3" transform="translate(11.23 176.86)">CONSE<tspan class="cls-4" x="81.79" y="0">R</tspan><tspan class="cls-5" x="97.99" y="0">VA</tspan><tspan x="126.52" y="0">TIVE</tspan></text></g></g></g></svg>