<svg xmlns="http://www.w3.org/2000/svg" xmlns:xlink="http://www.w3.org/1999/xlink" viewBox="0 0 200 200"><defs><style>.cls-1{fill:none;}.cls-2{fill:#222;}.cls-3{fill:#ccc;}.cls-4{clip-path:url(#clip-path);}.cls-5{clip-path:url(#clip-path-2);}.cls-6{clip-path:url(#clip-path-3);}.cls-7{clip-path:url(#clip-path-4);}.cls-8{isolation:isolate;font-size:33px;fill:#fff;font-family:Arial-BoldMT, Arial;font-weight:700;}.cls-9{letter-spacing:-0.07em;}</style><clipPath id="clip-path" transform="translate(0 -3.4)"><rect class="cls-1" x="20.6" y="51.2" width="105.8" height="56.4"/></clipPath><clipPath id="clip-path-2" transform="translate(0 -3.4)"><rect class="cls-1" x="73.6" y="51.2" width="105.8" height="56.4"/></clipPath><clipPath id="clip-path-3" transform="translate(0 -3.4)"><rect class="cls-1" x="71.8" y="52.8" width="56.4" height="105.8"/></clipPath><clipPath id="clip-path-4" transform="translate(0 -3.4)"><rect class="cls-1" x="71.8" width="56.4" height="105.8"/></clipPath></defs><g id="Layer_2" data-name="Layer 2"><g id="CourelliValues"><g id="Devolved"><g id="Structure"><path id="rect5163" class="cls-2" d="M15,3.4H185a15.11,15.11,0,0,1,15,15v170a15.11,15.11,0,0,1-15,15H15a15.11,15.11,0,0,1-15-15V18.4A15.11,15.11,0,0,1,15,3.4Z" transform="translate(0 -3.4)"/><path id="rect5165" class="cls-3" d="M20,13.4H180a9.9,9.9,0,0,1,10,10v160a9.9,9.9,0,0,1-10,10H20a9.9,9.9,0,0,1-10-10V23.4A10.16,10.16,0,0,1,20,13.4Z" transform="translate(0 -3.4)"/><path id="rect5205-3-6" class="cls-2" d="M5.6,143.4V175a21,21,0,0,0,21,21h147a21,21,0,0,0,21-21V143.4Z" transform="translate(0 -3.4)"/></g><g id="_Mirror_Repeat_" data-name="&lt;Mirror Repeat&gt;"><g class="cls-4"><polygon class="cls-2" points="100 71.4 100 80.6 71.6 80.6 71.6 90 47.2 76 71.6 61.8 71.6 71.4 100 71.4"/></g></g><g id="_Mirror_Repeat_2" data-name="&lt;Mirror Repeat&gt;"><g class="cls-5"><polygon class="cls-2" points="100 71.4 100 80.6 128.6 80.6 128.6 90 153 76 128.6 61.8 128.6 71.4 100 71.4"/></g></g><g id="_Mirror_Repeat_3" data-name="&lt;Mirror Repeat&gt;"><g class="cls-6"><polygon class="cls-2" points="95.4 76 104.6 76 104.6 104.4 114.2 104.4 100 128.8 86 104.4 95.4 104.4 95.4 76"/></g></g><g id="_Mirror_Repeat_4" data-name="&lt;Mirror Repeat&gt;"><g class="cls-7"><polygon class="cls-2" points="95.4 76 104.6 76 104.6 47.4 114.2 47.4 100 23 86 47.4 95.4 47.4 95.4 76"/></g></g><text class="cls-8" transform="translate(10.51 178.86)">DEVO<tspan class="cls-9" x="93.52" y="0">L</tspan><tspan x="111.23" y="0">VED</tspan></text></g></g></g></svg>