<svg xmlns="http://www.w3.org/2000/svg" viewBox="0 0 200 200"><defs><style>.cls-1{fill:#222;}.cls-2{fill:#999;}.cls-3{isolation:isolate;font-size:38px;fill:#fff;font-family:Arial-BoldMT, Arial;font-weight:700;}</style></defs><g id="Layer_2" data-name="Layer 2"><g id="CourelliValues"><g id="Elitist"><g id="Structure"><path id="rect5163" class="cls-1" d="M15,0H185a15.11,15.11,0,0,1,15,15V185a15.11,15.11,0,0,1-15,15H15A15.11,15.11,0,0,1,0,185V15A15.11,15.11,0,0,1,15,0Z"/><path id="rect5165" class="cls-2" d="M20,10H180a9.9,9.9,0,0,1,10,10V180a9.9,9.9,0,0,1-10,10H20a9.9,9.9,0,0,1-10-10V20A10.16,10.16,0,0,1,20,10Z"/><path id="rect5205-3-6" class="cls-1" d="M5.6,140v31.6a21,21,0,0,0,21,21h147a21,21,0,0,0,21-21V140Z"/></g><text class="cls-3" transform="translate(29.33 181.86)">ELITIST</text><path id="path3033-2-2" class="cls-1" d="M100.05,27.64C92.58,34.19,91.5,43,92.18,50.21a7.17,7.17,0,1,0,3,12.56l.26.63C88.54,84.31,72.19,74,66.45,68a5.3,5.3,0,1,0-2.49.62l.38,0c-1.42,15.85-11,22.89-24,5.88q.3,0,.6,0a5.3,5.3,0,1,0-5.1-6.73c-2.82-4.5-15.91-7.37-11.37-3.68,11.45,9.31,26,41.51,26,41.51h99.71c2.92-6.25,15.33-33.35,25.36-41.51,4.55-3.69-8.54-.82-11.36,3.68a5.3,5.3,0,1,0-5.11,6.73,5.88,5.88,0,0,0,.6,0c-13,17-22.54,10-24-5.88l.37,0a5.31,5.31,0,1,0-2.48-.62c-5.74,5.92-22.1,16.28-29-4.63l.26-.63a7.18,7.18,0,1,0,3-12.56c.68-7.23-.4-16-7.87-22.57Z"/></g></g></g></svg>