<svg xmlns="http://www.w3.org/2000/svg" viewBox="0 0 200 200"><defs><style>.cls-1{fill:#222;}.cls-2{fill:#606060;}.cls-3{font-size:29px;fill:#fff;font-family:Arial-BoldMT, Arial;font-weight:700;}.cls-4{letter-spacing:-0.02em;}</style></defs><g id="Layer_2" data-name="Layer 2"><g id="CourelliValues"><g id="Industrial"><g id="Structure"><rect id="rect5163" class="cls-1" width="200" height="200" rx="15"/><rect id="rect5165" class="cls-2" x="10" y="10" width="180" height="180" rx="10"/><path id="rect5205-3-6" class="cls-1" d="M5.5,140v31.5a21,21,0,0,0,21,21h147a21,21,0,0,0,21-21V140Z"/></g><path id="path3029" class="cls-1" d="M117,76A17,17,0,0,0,88,64a16.95,16.95,0,0,0,0,24,17,17,0,0,0,29-12Zm34-7.23V83.5A2.6,2.6,0,0,1,150.4,85a2.07,2.07,0,0,1-1.33.86L136.8,87.75a43,43,0,0,1-2.58,6q2.31,3.31,7.09,9.15a2.58,2.58,0,0,1,.66,1.66,2.28,2.28,0,0,1-.59,1.53,68.22,68.22,0,0,1-6.57,7.16c-3.18,3.14-5.26,4.7-6.23,4.7a3.17,3.17,0,0,1-1.72-.59l-9.16-7.16a38.79,38.79,0,0,1-6,2.52,110.39,110.39,0,0,1-1.92,12.33,2.24,2.24,0,0,1-2.39,1.86H92.64a2.47,2.47,0,0,1-1.62-.57,2,2,0,0,1-.77-1.42l-1.85-12.2a40.84,40.84,0,0,1-6-2.46l-9.35,7.1a2.38,2.38,0,0,1-1.66.59,2.31,2.31,0,0,1-1.66-.72q-8.36-7.56-10.94-11.14a2.63,2.63,0,0,1-.46-1.53,2.54,2.54,0,0,1,.53-1.53q1-1.38,3.38-4.4c1.59-2,2.79-3.57,3.58-4.68a33.2,33.2,0,0,1-2.72-6.56L51,85.63a2.13,2.13,0,0,1-1.4-.83,2.56,2.56,0,0,1-.53-1.56V68.52A2.6,2.6,0,0,1,49.6,67a2.06,2.06,0,0,1,1.26-.86L63.2,64.27a33.44,33.44,0,0,1,2.58-6.1Q63.14,54.39,58.69,49A2.49,2.49,0,0,1,58,47.43a2.82,2.82,0,0,1,.59-1.52,65.47,65.47,0,0,1,6.53-7.13Q70,34,71.42,34a2.8,2.8,0,0,1,1.72.66l9.16,7.1a36.94,36.94,0,0,1,6-2.52,110.28,110.28,0,0,1,1.92-12.34,2.23,2.23,0,0,1,2.39-1.85h14.72a2.46,2.46,0,0,1,1.62.56,2,2,0,0,1,.77,1.42l1.85,12.21a39.76,39.76,0,0,1,6,2.45l9.42-7.1a2.18,2.18,0,0,1,1.59-.59,2.58,2.58,0,0,1,1.66.66q8.55,7.89,10.94,11.27a2.15,2.15,0,0,1,.46,1.46,2.54,2.54,0,0,1-.53,1.53q-1,1.38-3.38,4.41c-1.59,2-2.79,3.57-3.58,4.67a40.6,40.6,0,0,1,2.72,6.5L149,66.4a2.08,2.08,0,0,1,1.4.82A2.56,2.56,0,0,1,150.93,68.78Z"/><text class="cls-3" transform="translate(12.46 180.81)">INDUSTRIA<tspan class="cls-4" x="157.89" y="0">L</tspan></text></g></g></g></svg>