<svg xmlns="http://www.w3.org/2000/svg" viewBox="0 0 200 200"><defs><style>.cls-1{fill:#222;}.cls-2{fill:#399;}.cls-3{isolation:isolate;font-size:35px;fill:#fff;font-family:Arial-BoldMT, Arial;font-weight:700;}</style></defs><g id="Layer_2" data-name="Layer 2"><g id="CourelliValues"><g id="Populist"><g id="Structure"><path id="rect5163" class="cls-1" d="M15,0H185a15.11,15.11,0,0,1,15,15V185a15.11,15.11,0,0,1-15,15H15A15.11,15.11,0,0,1,0,185V15A15.11,15.11,0,0,1,15,0Z"/><path id="rect5165" class="cls-2" d="M20,10H180a9.9,9.9,0,0,1,10,10V180a9.9,9.9,0,0,1-10,10H20a9.9,9.9,0,0,1-10-10V20A10.16,10.16,0,0,1,20,10Z"/><path id="rect5205-3-6" class="cls-1" d="M5.6,140v31.6a21,21,0,0,0,21,21h147a21,21,0,0,0,21-21V140Z"/></g><path id="path5187" class="cls-1" d="M83.86,127.86c-2.74-.09-3.68-.24-3.81-.58-.19-.5.13-3.23,1.33-11.25.45-3,1.1-7.56,1.45-10.12s.86-6,1.13-7.64a12.21,12.21,0,0,0,.28-3.37c-.62-1.08-3.65-5.62-8.33-12.45-9-13.14-13.86-20.37-14.4-21.43-.84-1.63-.65-2.33,1.48-5.31,1.1-1.55,2.65-3.76,3.45-4.92,4-5.81,11.18-15.93,11.78-16.59a1.8,1.8,0,0,1,1.09-.59c.52,0,19.7,8.34,23.11,10a3.36,3.36,0,0,1,1.74,1.57c.35,1-.34,6.43-.92,7.22-.44.6-1.7.86-7.66,1.58-5.71.7-6.42.48-9.77-3-1.27-1.31-2.45-2.3-2.62-2.2-.36.23.33,3.1,1,4.14,1.32,2,.82,3-1.82,3.43-2,.33-2.78.76-2.26,1.27a52.28,52.28,0,0,0,5.34,2.2C89.17,61.3,90.7,62,91.3,62.73a4.75,4.75,0,0,1,.83,1.12c0,.11.72,1.41,1.58,2.89C107,89.58,106.71,89,106.47,90a5.46,5.46,0,0,1-2.13,2.1c-1.06.72-1.84,1.46-1.73,1.64a3.31,3.31,0,0,0,1.85.22l1.66-.1-.08,3c0,1.68-.44,7.46-.89,12.85-1.32,16.06-1.43,17.14-1.71,17.6s-12.77.74-19.58.5Zm23.3,0c-1.27-.15-1.6-1-1.38-3.7.65-7.87,1.17-13.72,1.31-14.84.1-.7.45-4.31.8-8a49.11,49.11,0,0,1,.94-7c.22-.22.81-.21,1.79,0,.8.19,1.53.22,1.62.08a15.46,15.46,0,0,0-1.72-3.41c-1-1.73-2.94-5-4.23-7.17s-2.66-4.52-3.06-5.14-2.57-4.28-4.82-8.14c-2.84-4.85-4-7.11-3.77-7.34s1.21-.22,3.18,0c2.29.31,3.67.75,7.18,2.32,6.92,3.1,7.1,3.22,10.8,7,2.28,2.33,3.69,3.54,4.14,3.54.75,0,2.08-.88,8.16-5.41a43.71,43.71,0,0,1,4.26-3c.64,0,.6,1.14-.21,6-2,11.9-4.29,17.7-9.2,23.08l-2.26,2.48.19,13.9c.17,12.73.14,13.94-.35,14.34s-1.9.45-6.51.45c-3.28,0-6.37,0-6.86-.1Zm9.6-56.48c-2.35-2.51-2.8-3.16-2.57-3.67a38.19,38.19,0,0,1,3.21-3.76c1.6-1.73,3.53-3.85,4.28-4.72s1.56-1.77,1.81-2,1.92-2.1,3.7-4.11a38.53,38.53,0,0,1,3.66-3.81c.8-.31,8.2,8.38,8.2,9.63,0,.45-1,1.36-7.53,6.7-2.79,2.3-6.33,5.23-7.85,6.51a12.52,12.52,0,0,1-3.41,2.31c-.39,0-1.77-1.22-3.5-3.06Zm-10.63-6.75c-2.47-1.15-4.56-2.16-4.64-2.25-.44-.44,1.19-2.85,8.48-12.53,9-11.94,9.21-12.21,9.9-11.81,1,.59,9.22,8.76,9.22,9.2,0,.72-.34,1.13-11.9,14.21-1.88,2.12-3.68,4.18-4,4.58C112.23,67.11,111.05,66.87,106.13,64.59ZM92.3,59.28c-5.4-2-6.09-2.41-5.65-3.13.22-.35.6-.36,2.12,0,2,.42,3.84.27,8.19-.64,5.92-1.25,6.36-1.16,5.28,1.11-.68,1.45-3.69,4.67-4.33,4.65C97.66,61.22,95.13,60.34,92.3,59.28ZM105.48,48a14,14,0,0,0-.09-4.23,17.7,17.7,0,0,0-4-2.36c-2.14-1.06-3.69-2-3.75-2.32-.09-.51,7.37-12.09,8.09-12.57,1.11-.73,1.93-.17,6.89,4.72l5,5-.51.91c-.28.5-2.31,3.22-4.5,6s-4.56,5.88-5.26,6.81C105.45,52.53,105.21,52.28,105.48,48ZM94.39,37.86c-2-.66-11.77-5-12-5.32-.37-.58-.38-.57,2.22-4.09l4.71-6.4c2.79-3.8,3.72-4.82,4.41-4.82s3.56,2.08,7.3,5.21c2.22,1.86,2.63,2.35,2.47,2.93-.26.91-7.87,12.36-8.32,12.52A1.49,1.49,0,0,1,94.39,37.86Z"/><text class="cls-3" transform="translate(12.54 181.86)">POPULIST</text></g></g></g></svg>