<svg xmlns="http://www.w3.org/2000/svg" xmlns:xlink="http://www.w3.org/1999/xlink" viewBox="0 0 200 200"><defs><style>.cls-1{fill:none;}.cls-2{fill:#222;}.cls-3{fill:#a82626;}.cls-4{clip-path:url(#clip-path);}.cls-5{clip-path:url(#clip-path-2);}.cls-6{clip-path:url(#clip-path-3);}.cls-7{clip-path:url(#clip-path-4);}.cls-8{isolation:isolate;font-size:35px;fill:#fff;font-family:Arial-BoldMT, Arial;font-weight:700;}.cls-9{letter-spacing:-0.07em;}.cls-10{letter-spacing:-0.04em;}.cls-11{letter-spacing:-0.02em;}</style><clipPath id="clip-path" transform="translate(0 -5.6)"><rect class="cls-1" x="20.6" y="51.2" width="105.8" height="56.4"/></clipPath><clipPath id="clip-path-2" transform="translate(0 -5.6)"><rect class="cls-1" x="73.6" y="51.2" width="105.8" height="56.4"/></clipPath><clipPath id="clip-path-3" transform="translate(0 -5.6)"><rect class="cls-1" x="71.8" y="52.8" width="56.4" height="105.8"/></clipPath><clipPath id="clip-path-4" transform="translate(0 -5.6)"><rect class="cls-1" x="71.8" width="56.4" height="105.8"/></clipPath></defs><g id="Layer_2" data-name="Layer 2"><g id="CourelliValues"><g id="Unitary"><g id="Structure"><path id="rect5163" class="cls-2" d="M15,5.6H185a15.11,15.11,0,0,1,15,15v170a15.11,15.11,0,0,1-15,15H15a15.11,15.11,0,0,1-15-15V20.6A15.11,15.11,0,0,1,15,5.6Z" transform="translate(0 -5.6)"/><path id="rect5165" class="cls-3" d="M20,15.6H180a9.9,9.9,0,0,1,10,10v160a9.9,9.9,0,0,1-10,10H20a9.9,9.9,0,0,1-10-10V25.6A10.16,10.16,0,0,1,20,15.6Z" transform="translate(0 -5.6)"/><path id="rect5205-3-6" class="cls-2" d="M5.6,145.6v31.6a21,21,0,0,0,21,21h147a21,21,0,0,0,21-21V145.6Z" transform="translate(0 -5.6)"/></g><g id="_Mirror_Repeat_" data-name="&lt;Mirror Repeat&gt;"><g class="cls-4"><polygon class="cls-2" points="47.2 78.4 47.2 69 75.6 69 75.6 59.6 100 73.8 75.6 87.8 75.6 78.4 47.2 78.4"/></g></g><g id="_Mirror_Repeat_2" data-name="&lt;Mirror Repeat&gt;"><g class="cls-5"><polygon class="cls-2" points="153 78.4 153 69 124.4 69 124.4 59.6 100 73.8 124.4 87.8 124.4 78.4 153 78.4"/></g></g><g id="_Mirror_Repeat_3" data-name="&lt;Mirror Repeat&gt;"><g class="cls-6"><polygon class="cls-2" points="104.6 126.6 95.4 126.6 95.4 98.2 86 98.2 100 73.8 114.2 98.2 104.6 98.2 104.6 126.6"/></g></g><g id="_Mirror_Repeat_4" data-name="&lt;Mirror Repeat&gt;"><g class="cls-7"><polygon class="cls-2" points="104.6 20.8 95.4 20.8 95.4 49.4 86 49.4 100 73.8 114.2 49.4 104.6 49.4 104.6 20.8"/></g></g><text class="cls-8" transform="translate(24.2 180.86)">UNI<tspan class="cls-9" x="60.28" y="0">T</tspan><tspan x="79.06" y="0">A</tspan><tspan class="cls-10" x="104.33" y="0">R</tspan><tspan class="cls-11" x="128.31" y="0">Y</tspan></text></g></g></g></svg>